<?xml version="1.0" encoding="utf-8"?>
<!-- Generator: Adobe Illustrator 26.0.3, SVG Export Plug-In . SVG Version: 6.00 Build 0)  -->
<svg version="1.1" id="Layer_1" xmlns="http://www.w3.org/2000/svg" xmlns:xlink="http://www.w3.org/1999/xlink" x="0px" y="0px"
	 viewBox="0 0 521.9 222.9" style="enable-background:new 0 0 521.9 222.9;" xml:space="preserve">
<style type="text/css">
	.st0{fill:#6D6E71;}
	.st1{fill:#0078AD;}
	.st2{fill:#A7A9AC;}
	.st3{fill:#D1D3D4;}
	.st4{opacity:0.5;fill:url(#SVGID_1_);}
	.st5{opacity:0.5;fill:url(#SVGID_00000170962145816397364680000002794180891838046363_);}
	.st6{opacity:0.5;fill:url(#SVGID_00000124128036999246027920000006999418402448311216_);}
	.st7{opacity:0.5;fill:url(#SVGID_00000099630275102110030090000002096766760767149969_);}
	.st8{opacity:0.5;}
	.st9{fill:url(#SVGID_00000172399965418576807110000016434313112630482354_);}
	.st10{fill:url(#SVGID_00000096030981889175472820000002389187792351586707_);}
	.st11{fill:url(#SVGID_00000142177466199562098450000013520454147351835549_);}
	.st12{opacity:0.5;fill:url(#SVGID_00000183948498133904056470000010242020286465043107_);}
	.st13{opacity:0.5;fill:url(#SVGID_00000159448028967798033490000003890664443199441033_);}
	.st14{opacity:0.5;fill:url(#SVGID_00000143606861937873465430000006540993903309549706_);}
	.st15{opacity:0.5;fill:url(#SVGID_00000043447733050030613700000003526424978272713117_);}
	.st16{opacity:0.5;fill:url(#SVGID_00000114779513564699455950000000514241505562593169_);}
	.st17{opacity:0.5;fill:url(#SVGID_00000078006294908947062610000010154930662969495482_);}
	.st18{opacity:0.5;fill:url(#SVGID_00000165217245787162007480000013660275811806290319_);}
</style>
<g>
	<g>
		<path d="M205.1,151.7c0.8-0.8,1.6-1.3,2.3-1.3c1.6,0,3.6,1.7,3.6,3.4c0,0.7-0.3,1.4-0.9,2.2l-8.1,8.9c-0.2,0.3-0.3,0.3-0.3,0.6
			c0,0.2,0.2,0.4,0.3,0.6l10.4,15.8c0.5,0.7,0.7,1.4,0.7,1.9c0,1.7-2,3.3-3.7,3.3c-0.9,0-1.7-0.4-2.5-1.5l-9.4-14.7
			c-0.2-0.3-0.3-0.4-0.5-0.4c-0.2,0-0.3,0.1-0.4,0.2l-3.1,3.7c-0.3,0.4-0.3,1.2-0.3,1.5v8.3c0,2.3-1.8,2.9-3.4,2.9
			c-1.6,0-3.4-0.6-3.4-2.9v-31c0-2.3,1.8-2.9,3.4-2.9c1.6,0,3.4,0.6,3.4,2.9v10.4c0,0.5,0.1,0.7,0.4,0.7c0.2,0,0.3-0.1,0.3-0.1
			L205.1,151.7z"/>
		<path d="M237.1,172.5c0.2,0.3,0.3,0.5,0.6,0.5c0.3,0,0.3-0.4,0.3-0.5v-19.2c0-2.3,1.8-2.9,3.4-2.9c1.6,0,3.4,0.6,3.4,2.9v29.8
			c0,3.1-1.5,4.1-3.5,4.1c-2.2,0-3.1-0.9-4.9-3.9l-10.8-18.2c-0.2-0.3-0.3-0.6-0.6-0.6c-0.3,0-0.3,0.4-0.3,0.6v19.2
			c0,2.3-1.8,2.9-3.4,2.9c-1.6,0-3.4-0.6-3.4-2.9v-29.8c0-3.1,1.5-4.1,3.5-4.1c2.2,0,3.1,0.9,4.9,3.9L237.1,172.5z"/>
		<path d="M273,150.6c2.1,0,2.9,1.6,2.9,3.3c0,1.6-0.8,3.3-2.9,3.3h-13.3c-0.4,0-0.5,0.1-0.5,0.5v6.8c0,0.4,0.1,0.5,0.5,0.5h11.3
			c2.1,0,2.9,1.6,2.9,3.3c0,1.6-0.8,3.3-2.9,3.3h-11.3c-0.4,0-0.5,0.1-0.5,0.5v7.9c0,0.4,0.1,0.5,0.5,0.5h13.8
			c2.1,0,2.9,1.7,2.9,3.3c0,1.6-0.8,3.2-2.9,3.2h-18.1c-1.8,0-3-1.1-3-3.1v-30.2c0-2,1.1-3.1,3-3.1H273z"/>
		<path d="M302.9,150.6c2.1,0,2.9,1.6,2.9,3.3c0,1.6-0.8,3.3-2.9,3.3h-13.3c-0.4,0-0.5,0.1-0.5,0.5v6.8c0,0.4,0.1,0.5,0.5,0.5h11.3
			c2.1,0,2.9,1.6,2.9,3.3c0,1.6-0.8,3.3-2.9,3.3h-11.3c-0.4,0-0.5,0.1-0.5,0.5v7.9c0,0.4,0.1,0.5,0.5,0.5h13.8
			c2.1,0,2.9,1.7,2.9,3.3c0,1.6-0.8,3.2-2.9,3.2h-18.1c-1.8,0-3-1.1-3-3.1v-30.2c0-2,1.1-3.1,3-3.1H302.9z"/>
		<path d="M312.3,153.7c0-2,1.1-3.1,3-3.1h12c6.3,0,11.1,3.4,11.1,10.7c0,3.2-1.3,5-2.7,6.3c-0.3,0.3-0.4,0.4-0.4,0.6
			s0.1,0.4,0.4,0.7c1.7,1.7,3.5,3.4,3.5,7.3c0,7.2-5.3,10.8-11.2,10.8h-12.8c-1.8,0-3-1.1-3-3.1V153.7z M327.4,165.4
			c1.9,0,4-1.5,4-4.1c0-2.7-1.8-4.1-4-4.1h-7.8c-0.4,0-0.5,0.1-0.5,0.5v7.3c0,0.4,0.1,0.5,0.5,0.5H327.4z M319.5,172
			c-0.4,0-0.5,0.1-0.5,0.5v7.5c0,0.4,0.1,0.5,0.5,0.5h8.6c2.2,0,4-1.5,4-4.2c0-2.8-2.1-4.2-4-4.2H319.5z"/>
		<path d="M346.7,154.4c2.9-3.2,6.2-3.9,10.6-3.9c4.4,0,7.7,0.7,10.6,3.9c2.1,2.4,3.1,7.4,3.1,14.5c0,7.1-1,12.1-3.1,14.5
			c-2.9,3.2-6.2,3.9-10.6,3.9c-4.4,0-7.7-0.7-10.6-3.9c-2.1-2.4-3.1-7.4-3.1-14.5C343.6,161.8,344.6,156.8,346.7,154.4z
			 M362.8,159.6c-1.4-2.7-4.1-2.7-5.5-2.7c-1.5,0-4.2,0-5.5,2.7c-1,2-1,5.1-1,9.2c0,4.1,0,7.2,1,9.2c1.4,2.6,4.1,2.6,5.5,2.6
			c1.5,0,4.2,0,5.5-2.6c1-2,1-5.1,1-9.2C363.8,164.7,363.8,161.6,362.8,159.6z"/>
		<path d="M394,155.2l10,27.6c0.2,0.5,0.3,1,0.3,1.5c0,1.8-1.8,3-3.6,3c-1.1,0-2.4-0.5-2.9-2.2l-1.6-4.5c-0.2-0.5-0.4-0.7-0.8-0.7
			h-13.1c-0.4,0-0.6,0.3-0.8,0.7l-1.6,4.5c-0.6,1.7-1.8,2.2-2.9,2.2c-1.6,0-3.6-1-3.6-3c0-0.4,0.1-0.9,0.3-1.5l10-27.6
			c1.3-3.7,2.5-4.8,5.2-4.8C391.5,150.4,392.6,151.5,394,155.2z M393,173.2c0.3,0,0.5-0.1,0.5-0.3c0-0.1,0-0.3-0.2-0.7l-3.8-11.5
			c-0.3-0.7-0.4-1.7-0.7-1.7c-0.4,0-0.5,0.9-0.7,1.7l-3.8,11.5c-0.2,0.4-0.2,0.6-0.2,0.7c0,0.2,0.2,0.3,0.5,0.3H393z"/>
		<path d="M435,182.2c0.4,0.6,0.6,1.3,0.6,1.8c0,1.7-2,3.2-3.7,3.2c-0.9,0-1.9-0.4-2.6-1.7l-6.9-12c-0.3-0.5-0.4-0.5-0.8-0.5h-5.3
			c-0.4,0-0.5,0.1-0.5,0.5v10.9c0,2.3-1.8,2.9-3.4,2.9c-1.6,0-3.4-0.6-3.4-2.9v-30.6c0-2,1.1-3.1,3-3.1h12.8c6,0,10.8,3.6,10.8,11.2
			c0,5.9-2.5,8.6-5.8,10.5c-0.2,0.1-0.3,0.2-0.3,0.4c0,0.1,0.1,0.2,0.1,0.2L435,182.2z M424.7,166.5c2.1,0,3.7-1.6,3.7-4.6
			c0-3.1-1.6-4.6-4-4.6h-8.3c-0.4,0-0.5,0.1-0.5,0.5v8.4c0,0.4,0.1,0.5,0.5,0.5H424.7z"/>
		<path d="M455.5,150.6c4.3,0,7.6,0.7,10.4,3.9c2.1,2.4,3.1,7.3,3.1,14.3c0,6.9-1,11.9-3.1,14.3c-2.8,3.2-6.1,3.9-10.4,3.9h-10.3
			c-1.8,0-3-1.1-3-3.1v-30.2c0-2,1.1-3.1,3-3.1H455.5z M455.5,180.5c1.4,0,4.1-0.1,5.4-2.7c1-1.9,1-5,1-9c0-4-0.1-6.9-1-8.9
			c-1.4-2.7-4-2.8-5.4-2.8h-6.1c-0.4,0-0.5,0.1-0.5,0.5V180c0,0.4,0.1,0.5,0.5,0.5H455.5z"/>
	</g>
	<g>
		<path d="M208.8,97.9c-1.2,0-1.5,0.3-1.5,1.5v31.6c0,7.4-5.7,9.2-10.9,9.2c-5,0-10.9-1.8-10.9-9.2V32.9c0-6.4,3.7-9.9,9.5-9.9h41
			c19.1,0,34.5,12.1,34.5,37.5c0,25.3-15.4,37.3-34.5,37.3H208.8z M235.3,77c7.7,0,12.7-5.4,12.7-16.4S243,44,235.3,44h-26.5
			c-1.2,0-1.5,0.3-1.5,1.5v30c0,1.2,0.3,1.5,1.5,1.5H235.3z"/>
		<path d="M353.2,23.1c6.9,0,9.4,5.2,9.4,10.5c0,5.2-2.5,10.5-9.4,10.5h-42.5c-1.2,0-1.5,0.3-1.5,1.5v21.8c0,1.2,0.3,1.5,1.5,1.5
			h36.2c6.9,0,9.4,5.2,9.4,10.5c0,5.2-2.5,10.5-9.4,10.5h-36.2c-1.2,0-1.5,0.3-1.5,1.5V117c0,1.2,0.3,1.5,1.5,1.5h44.2
			c6.9,0,9.4,5.4,9.4,10.7c0,5.2-2.5,10.4-9.4,10.4h-57.9c-5.9,0-9.5-3.5-9.5-9.9V32.9c0-6.4,3.7-9.9,9.5-9.9H353.2z"/>
		<path d="M444.8,93.1c0.5,0.8,1,1.7,1.8,1.7s0.8-1.3,0.8-1.7V31.6c0-7.4,5.7-9.2,10.9-9.2c5,0,10.9,1.8,10.9,9.2v95.6
			c0,9.9-4.7,13.1-11.2,13.1c-7.2,0-10-2.8-15.7-12.4l-34.7-58.3c-0.5-1-1-1.8-1.8-1.8s-0.8,1.3-0.8,1.8v61.5
			c0,7.4-5.7,9.2-10.9,9.2c-5,0-10.9-1.8-10.9-9.2V35.5c0-9.9,4.7-13.1,11.2-13.1c7.2,0,10,2.8,15.7,12.4L444.8,93.1z"/>
	</g>
	<path d="M156.9,23.5H64.5c-7.2,0-13,5.8-13,13v9h-8.4v10.1h-7.6v32.3h7.6v34.6h-7.6v32.3h7.6v10.1h8.4v9c0,7.2,5.8,13,13,13h92.4
		c7.2,0,13-5.8,13-13V36.5C170,29.4,164.1,23.5,156.9,23.5z M149.3,157.3c0,4.4-3.6,7.9-7.9,7.9H80.1c-4.4,0-7.9-3.6-7.9-7.9V53.1
		c0-4.4,3.6-7.9,7.9-7.9h61.3c4.4,0,7.9,3.6,7.9,7.9V157.3z"/>
	<path d="M103,125.3c-18.4,5-24.9,11.9-24.9,11.9v17.5c0,3,2.8,5.4,6.3,5.4h52.5c3.5,0,6.3-2.4,6.3-5.4v-49.1
		C142.1,110.5,121.3,120.3,103,125.3z"/>
	<path d="M78,99.8c0,0,6.6-6.8,24.9-11.9c18.4-5,39.1-14.8,40.2-19.8V55.8c0-3-2.8-5.4-6.3-5.4H84.3c-3.5,0-6.3,2.4-6.3,5.4V99.8z"
		/>
</g>
</svg>
