<?xml version="1.0" encoding="utf-8"?>
<!-- Generator: Adobe Illustrator 26.0.3, SVG Export Plug-In . SVG Version: 6.00 Build 0)  -->
<svg version="1.1" id="Layer_1" xmlns="http://www.w3.org/2000/svg" xmlns:xlink="http://www.w3.org/1999/xlink" x="0px" y="0px"
	 viewBox="0 0 212.6 225.1" style="enable-background:new 0 0 212.6 225.1;" xml:space="preserve">
<style type="text/css">
	.st0{fill:#6D6E71;}
	.st1{fill:#0078AD;}
	.st2{fill:#A7A9AC;}
	.st3{fill:#D1D3D4;}
	.st4{opacity:0.5;fill:url(#SVGID_1_);}
	.st5{opacity:0.5;fill:url(#SVGID_00000160878536083346403630000006022554095562156716_);}
	.st6{opacity:0.5;fill:url(#SVGID_00000107566076666156159070000007322523970166566834_);}
	.st7{opacity:0.5;fill:url(#SVGID_00000171683348241062458020000006090030563471910795_);}
	.st8{opacity:0.5;}
	.st9{fill:url(#SVGID_00000085957428301434045910000013503752189405849786_);}
	.st10{fill:url(#SVGID_00000173863626615413702680000013294490328145188535_);}
	.st11{fill:url(#SVGID_00000000931480951305219450000009855147796724473251_);}
	.st12{opacity:0.5;fill:url(#SVGID_00000010272181852806196220000005249321955322583684_);}
	.st13{opacity:0.5;fill:url(#SVGID_00000026132392948310125900000011668076538056920971_);}
	.st14{opacity:0.5;fill:url(#SVGID_00000029019888992951473740000011670576952220609950_);}
	.st15{opacity:0.5;fill:url(#SVGID_00000060753058147328623300000005262372825219396790_);}
	.st16{opacity:0.5;fill:url(#SVGID_00000044887473779899683800000013472222891588051861_);}
	.st17{opacity:0.5;fill:url(#SVGID_00000144308502549785913330000004287438617179018640_);}
	.st18{opacity:0.5;fill:url(#SVGID_00000103225150887752828400000003276037284143895986_);}
</style>
<g>
	<polyline class="st0" points="181.7,163.1 166.4,163.1 166.4,130.8 181.7,130.8 	"/>
	<polyline class="st0" points="181.7,96.2 166.4,96.2 166.4,63.9 181.7,63.9 	"/>
</g>
<polyline class="st0" points="174,173.2 158.8,173.2 158.8,53.8 174,53.8 "/>
<g>
	<g>
		<polyline class="st0" points="31.2,63.5 46.5,63.5 46.5,95.7 31.2,95.7 		"/>
		<polyline class="st0" points="31.2,130.3 46.5,130.3 46.5,162.6 31.2,162.6 		"/>
	</g>
	<polyline class="st0" points="38.8,53.3 54.1,53.3 54.1,172.7 38.8,172.7 	"/>
	<path class="st1" d="M152.7,31.3H60.3c-7.2,0-13,5.8-13,13v137.4c0,7.2,5.8,13,13,13h92.4c7.2,0,13-5.8,13-13V44.4
		C165.7,37.2,159.9,31.3,152.7,31.3z M145.1,165.2c0,4.4-3.6,7.9-7.9,7.9H75.8c-4.4,0-7.9-3.6-7.9-7.9V60.9c0-4.4,3.6-7.9,7.9-7.9
		h61.3c4.4,0,7.9,3.6,7.9,7.9V165.2z"/>
	<path class="st2" d="M98.7,133.1c-18.4,5-24.9,11.9-24.9,11.9v17.5c0,3,2.8,5.4,6.3,5.4h52.5c3.5,0,6.3-2.4,6.3-5.4v-49.1
		C137.9,118.4,117.1,128.1,98.7,133.1z"/>
	<path class="st3" d="M73.8,107.6c0,0,6.6-6.8,24.9-11.9c18.4-5,39.1-14.8,40.2-19.8V63.6c0-3-2.8-5.4-6.3-5.4H80.1
		c-3.5,0-6.3,2.4-6.3,5.4V107.6z"/>
	<radialGradient id="SVGID_1_" cx="51.0228" cy="20.6582" r="336.2193" gradientUnits="userSpaceOnUse">
		<stop  offset="0" style="stop-color:#231F20;stop-opacity:0"/>
		<stop  offset="1" style="stop-color:#231F20"/>
	</radialGradient>
	<path class="st4" d="M152.7,31.3H60.3c-7.2,0-13,5.8-13,13v137.4c0,7.2,5.8,13,13,13h92.4c7.2,0,13-5.8,13-13V44.4
		C165.7,37.2,159.9,31.3,152.7,31.3z M145.1,165.2c0,4.4-3.6,7.9-7.9,7.9H75.8c-4.4,0-7.9-3.6-7.9-7.9V60.9c0-4.4,3.6-7.9,7.9-7.9
		h61.3c4.4,0,7.9,3.6,7.9,7.9V165.2z"/>
</g>
<linearGradient id="SVGID_00000182512074358488775240000009246407477569292167_" gradientUnits="userSpaceOnUse" x1="40.9439" y1="113.3282" x2="47.2477" y2="113.3282">
	<stop  offset="0" style="stop-color:#231F20;stop-opacity:0"/>
	<stop  offset="1" style="stop-color:#231F20"/>
</linearGradient>
<rect x="40.9" y="53.6" style="opacity:0.5;fill:url(#SVGID_00000182512074358488775240000009246407477569292167_);" width="6.3" height="119.5"/>
<linearGradient id="SVGID_00000083083625033939737690000009591778530114114705_" gradientUnits="userSpaceOnUse" x1="32.536" y1="79.5974" x2="38.8398" y2="79.5974">
	<stop  offset="0" style="stop-color:#231F20;stop-opacity:0"/>
	<stop  offset="1" style="stop-color:#231F20"/>
</linearGradient>
<rect x="32.5" y="63.5" style="opacity:0.5;fill:url(#SVGID_00000083083625033939737690000009591778530114114705_);" width="6.3" height="32.3"/>
<linearGradient id="SVGID_00000181045830996499313170000009322573648467956898_" gradientUnits="userSpaceOnUse" x1="32.536" y1="146.4648" x2="38.8398" y2="146.4648">
	<stop  offset="0" style="stop-color:#231F20;stop-opacity:0"/>
	<stop  offset="1" style="stop-color:#231F20"/>
</linearGradient>
<rect x="32.5" y="130.3" style="opacity:0.5;fill:url(#SVGID_00000181045830996499313170000009322573648467956898_);" width="6.3" height="32.3"/>
<linearGradient id="SVGID_00000078736672694115832280000017974200695643214722_" gradientUnits="userSpaceOnUse" x1="10009.7686" y1="-463.8311" x2="10016.0723" y2="-463.8311" gradientTransform="matrix(-1 0 0 -1 10181.7041 -350.623)">
	<stop  offset="0" style="stop-color:#231F20;stop-opacity:0"/>
	<stop  offset="1" style="stop-color:#231F20"/>
</linearGradient>
<polygon style="opacity:0.5;fill:url(#SVGID_00000078736672694115832280000017974200695643214722_);" points="165.6,53.4 
	171.9,53.4 171.9,173 165.6,173 "/>
<linearGradient id="SVGID_00000176002989697392485070000006628471988116585907_" gradientUnits="userSpaceOnUse" x1="10001.3604" y1="-497.5619" x2="10007.665" y2="-497.5619" gradientTransform="matrix(-1 0 0 -1 10181.7041 -350.623)">
	<stop  offset="0" style="stop-color:#231F20;stop-opacity:0"/>
	<stop  offset="1" style="stop-color:#231F20"/>
</linearGradient>
<polygon style="opacity:0.5;fill:url(#SVGID_00000176002989697392485070000006628471988116585907_);" points="174,130.8 
	180.3,130.8 180.3,163.1 174,163.1 "/>
<linearGradient id="SVGID_00000024692181357144961390000007456435419766889642_" gradientUnits="userSpaceOnUse" x1="10001.3604" y1="-430.6945" x2="10007.665" y2="-430.6945" gradientTransform="matrix(-1 0 0 -1 10181.7041 -350.623)">
	<stop  offset="0" style="stop-color:#231F20;stop-opacity:0"/>
	<stop  offset="1" style="stop-color:#231F20"/>
</linearGradient>
<polygon style="opacity:0.5;fill:url(#SVGID_00000024692181357144961390000007456435419766889642_);" points="174,63.9 180.3,63.9 
	180.3,96.2 174,96.2 "/>
</svg>
