<?xml version="1.0" encoding="utf-8"?>
<!-- Generator: Adobe Illustrator 26.0.3, SVG Export Plug-In . SVG Version: 6.00 Build 0)  -->
<svg version="1.1" id="Layer_1" xmlns="http://www.w3.org/2000/svg" xmlns:xlink="http://www.w3.org/1999/xlink" x="0px" y="0px"
	 viewBox="0 0 212.6 225.1" style="enable-background:new 0 0 212.6 225.1;" xml:space="preserve">
<style type="text/css">
	.st0{fill:#6D6E71;}
	.st1{fill:#0078AD;}
	.st2{fill:#A7A9AC;}
	.st3{fill:#D1D3D4;}
	.st4{opacity:0.5;fill:url(#SVGID_1_);}
	.st5{opacity:0.5;fill:url(#SVGID_00000014593171438485264840000010408371949491573670_);}
	.st6{opacity:0.5;fill:url(#SVGID_00000096757571278539946140000002965600803114937514_);}
	.st7{opacity:0.5;fill:url(#SVGID_00000043419563797784631580000013991307931779244447_);}
	.st8{opacity:0.5;}
	.st9{fill:url(#SVGID_00000171680046999886741840000012477450000822881213_);}
	.st10{fill:url(#SVGID_00000049191404523973169910000011547234967222305408_);}
	.st11{fill:url(#SVGID_00000063618520106073710900000006524059373111686534_);}
	.st12{opacity:0.5;fill:url(#SVGID_00000031175838440162616960000005776905522947042721_);}
	.st13{opacity:0.5;fill:url(#SVGID_00000172430839347738048830000002927467396518252182_);}
	.st14{opacity:0.5;fill:url(#SVGID_00000083071858592347859820000011578271120054445987_);}
	.st15{opacity:0.5;fill:url(#SVGID_00000098214166330883346890000017161774055694597001_);}
	.st16{opacity:0.5;fill:url(#SVGID_00000078727436714810204680000012130417433891288234_);}
	.st17{opacity:0.5;fill:url(#SVGID_00000162328004637651380030000003382008728636390560_);}
	.st18{opacity:0.5;fill:url(#SVGID_00000125565326953638207490000000708132607165142411_);}
</style>
<g>
	<polyline class="st0" points="181.7,163.1 166.4,163.1 166.4,130.8 181.7,130.8 	"/>
	<polyline class="st0" points="181.7,96.2 166.4,96.2 166.4,63.9 181.7,63.9 	"/>
</g>
<polyline class="st0" points="174,173.2 158.8,173.2 158.8,53.8 174,53.8 "/>
<g>
	<g>
		<polyline class="st0" points="31.2,63.5 46.5,63.5 46.5,95.7 31.2,95.7 		"/>
		<polyline class="st0" points="31.2,130.3 46.5,130.3 46.5,162.6 31.2,162.6 		"/>
	</g>
	<polyline class="st0" points="38.8,53.3 54.1,53.3 54.1,172.7 38.8,172.7 	"/>
	<path class="st1" d="M152.7,31.3H60.3c-7.2,0-13,5.8-13,13v137.4c0,7.2,5.8,13,13,13h92.4c7.2,0,13-5.8,13-13V44.4
		C165.7,37.2,159.9,31.3,152.7,31.3z M145.1,165.2c0,4.4-3.6,7.9-7.9,7.9H75.8c-4.4,0-7.9-3.6-7.9-7.9V60.9c0-4.4,3.6-7.9,7.9-7.9
		h61.3c4.4,0,7.9,3.6,7.9,7.9V165.2z"/>
	<path class="st2" d="M98.7,133.1c-18.4,5-24.9,11.9-24.9,11.9v17.5c0,3,2.8,5.4,6.3,5.4h52.5c3.5,0,6.3-2.4,6.3-5.4v-49.1
		C137.9,118.4,117.1,128.1,98.7,133.1z"/>
	<path class="st3" d="M73.8,107.6c0,0,6.6-6.8,24.9-11.9c18.4-5,39.1-14.8,40.2-19.8V63.6c0-3-2.8-5.4-6.3-5.4H80.1
		c-3.5,0-6.3,2.4-6.3,5.4V107.6z"/>
</g>
</svg>
