<?xml version="1.0" encoding="utf-8"?>
<!-- Generator: Adobe Illustrator 26.0.3, SVG Export Plug-In . SVG Version: 6.00 Build 0)  -->
<svg version="1.1" id="Layer_1" xmlns="http://www.w3.org/2000/svg" xmlns:xlink="http://www.w3.org/1999/xlink" x="0px" y="0px"
	 viewBox="0 0 521.9 222.9" style="enable-background:new 0 0 521.9 222.9;" xml:space="preserve">
<style type="text/css">
	.st0{fill:#6D6E71;}
	.st1{fill:#0078AD;}
	.st2{fill:#A7A9AC;}
	.st3{fill:#D1D3D4;}
	.st4{opacity:0.5;fill:url(#SVGID_1_);}
	.st5{opacity:0.5;fill:url(#SVGID_00000173136188693418425160000003077066571868516992_);}
	.st6{opacity:0.5;fill:url(#SVGID_00000054983270440851739560000004057279193678194364_);}
	.st7{opacity:0.5;fill:url(#SVGID_00000080911233574909295730000012309134814844411566_);}
	.st8{opacity:0.5;}
	.st9{fill:url(#SVGID_00000149382674592401687210000007434585547393497258_);}
	.st10{fill:url(#SVGID_00000160904149782689159420000011265991398453067921_);}
	.st11{fill:url(#SVGID_00000118368601823476047160000014498525149421040035_);}
	.st12{opacity:0.5;fill:url(#SVGID_00000063596216057563563810000014686465572475462018_);}
	.st13{opacity:0.5;fill:url(#SVGID_00000021113209664545495450000015588848175434625175_);}
	.st14{opacity:0.5;fill:url(#SVGID_00000163757538444803852600000016277202423855403693_);}
	.st15{opacity:0.5;fill:url(#SVGID_00000139291749412681352260000008039458724256211869_);}
	.st16{opacity:0.5;fill:url(#SVGID_00000023255925857948191110000006924294875781708438_);}
	.st17{opacity:0.5;fill:url(#SVGID_00000065773547562045882060000013687292760924547977_);}
	.st18{opacity:0.5;fill:url(#SVGID_00000115493239829131764220000013944107632586617251_);}
</style>
<g>
	<g>
		<polyline class="st0" points="40.7,55.6 56,55.6 56,87.9 40.7,87.9 		"/>
		<polyline class="st0" points="40.7,122.5 56,122.5 56,154.8 40.7,154.8 		"/>
	</g>
	<polyline class="st0" points="48.3,45.5 63.6,45.5 63.6,164.9 48.3,164.9 	"/>
	<g>
		<path d="M210.3,151.7c0.8-0.8,1.6-1.3,2.3-1.3c1.6,0,3.6,1.7,3.6,3.4c0,0.7-0.3,1.4-0.9,2.2l-8.1,8.9c-0.2,0.3-0.3,0.3-0.3,0.6
			c0,0.2,0.2,0.4,0.3,0.6l10.4,15.8c0.5,0.7,0.7,1.4,0.7,1.9c0,1.7-2,3.3-3.7,3.3c-0.9,0-1.7-0.4-2.5-1.5l-9.4-14.7
			c-0.2-0.3-0.3-0.4-0.5-0.4c-0.2,0-0.3,0.1-0.4,0.2l-3.1,3.7c-0.3,0.4-0.3,1.2-0.3,1.5v8.3c0,2.3-1.8,2.9-3.4,2.9
			c-1.6,0-3.4-0.6-3.4-2.9v-31c0-2.3,1.8-2.9,3.4-2.9c1.6,0,3.4,0.6,3.4,2.9v10.4c0,0.5,0.1,0.7,0.4,0.7c0.2,0,0.3-0.1,0.3-0.1
			L210.3,151.7z"/>
		<path d="M242.3,172.5c0.2,0.3,0.3,0.5,0.6,0.5c0.3,0,0.3-0.4,0.3-0.5v-19.2c0-2.3,1.8-2.9,3.4-2.9c1.6,0,3.4,0.6,3.4,2.9v29.8
			c0,3.1-1.5,4.1-3.5,4.1c-2.2,0-3.1-0.9-4.9-3.9l-10.8-18.2c-0.2-0.3-0.3-0.6-0.6-0.6c-0.3,0-0.3,0.4-0.3,0.6v19.2
			c0,2.3-1.8,2.9-3.4,2.9c-1.6,0-3.4-0.6-3.4-2.9v-29.8c0-3.1,1.5-4.1,3.5-4.1c2.2,0,3.1,0.9,4.9,3.9L242.3,172.5z"/>
		<path d="M278.3,150.6c2.1,0,2.9,1.6,2.9,3.3c0,1.6-0.8,3.3-2.9,3.3H265c-0.4,0-0.5,0.1-0.5,0.5v6.8c0,0.4,0.1,0.5,0.5,0.5h11.3
			c2.1,0,2.9,1.6,2.9,3.3c0,1.6-0.8,3.3-2.9,3.3H265c-0.4,0-0.5,0.1-0.5,0.5v7.9c0,0.4,0.1,0.5,0.5,0.5h13.8c2.1,0,2.9,1.7,2.9,3.3
			c0,1.6-0.8,3.2-2.9,3.2h-18.1c-1.8,0-3-1.1-3-3.1v-30.2c0-2,1.1-3.1,3-3.1H278.3z"/>
		<path d="M308.2,150.6c2.1,0,2.9,1.6,2.9,3.3c0,1.6-0.8,3.3-2.9,3.3h-13.3c-0.4,0-0.5,0.1-0.5,0.5v6.8c0,0.4,0.1,0.5,0.5,0.5h11.3
			c2.1,0,2.9,1.6,2.9,3.3c0,1.6-0.8,3.3-2.9,3.3h-11.3c-0.4,0-0.5,0.1-0.5,0.5v7.9c0,0.4,0.1,0.5,0.5,0.5h13.8
			c2.1,0,2.9,1.7,2.9,3.3c0,1.6-0.8,3.2-2.9,3.2h-18.1c-1.8,0-3-1.1-3-3.1v-30.2c0-2,1.1-3.1,3-3.1H308.2z"/>
		<path d="M317.5,153.7c0-2,1.1-3.1,3-3.1h12c6.3,0,11.1,3.4,11.1,10.7c0,3.2-1.3,5-2.7,6.3c-0.3,0.3-0.4,0.4-0.4,0.6
			s0.1,0.4,0.4,0.7c1.7,1.7,3.5,3.4,3.5,7.3c0,7.2-5.3,10.8-11.2,10.8h-12.8c-1.8,0-3-1.1-3-3.1V153.7z M332.6,165.4
			c1.9,0,4-1.5,4-4.1c0-2.7-1.8-4.1-4-4.1h-7.8c-0.4,0-0.5,0.1-0.5,0.5v7.3c0,0.4,0.1,0.5,0.5,0.5H332.6z M324.8,172
			c-0.4,0-0.5,0.1-0.5,0.5v7.5c0,0.4,0.1,0.5,0.5,0.5h8.6c2.2,0,4-1.5,4-4.2c0-2.8-2.1-4.2-4-4.2H324.8z"/>
		<path d="M351.9,154.4c2.9-3.2,6.2-3.9,10.6-3.9c4.4,0,7.7,0.7,10.6,3.9c2.1,2.4,3.1,7.4,3.1,14.5c0,7.1-1,12.1-3.1,14.5
			c-2.9,3.2-6.2,3.9-10.6,3.9c-4.4,0-7.7-0.7-10.6-3.9c-2.1-2.4-3.1-7.4-3.1-14.5C348.9,161.8,349.9,156.8,351.9,154.4z M368,159.6
			c-1.4-2.7-4.1-2.7-5.5-2.7c-1.5,0-4.2,0-5.5,2.7c-1,2-1,5.1-1,9.2c0,4.1,0,7.2,1,9.2c1.4,2.6,4.1,2.6,5.5,2.6c1.5,0,4.2,0,5.5-2.6
			c1-2,1-5.1,1-9.2C369.1,164.7,369,161.6,368,159.6z"/>
		<path d="M399.2,155.2l10,27.6c0.2,0.5,0.3,1,0.3,1.5c0,1.8-1.8,3-3.6,3c-1.1,0-2.4-0.5-2.9-2.2l-1.6-4.5c-0.2-0.5-0.4-0.7-0.8-0.7
			h-13.1c-0.4,0-0.6,0.3-0.8,0.7l-1.6,4.5c-0.6,1.7-1.8,2.2-2.9,2.2c-1.6,0-3.6-1-3.6-3c0-0.4,0.1-0.9,0.3-1.5l10-27.6
			c1.3-3.7,2.5-4.8,5.2-4.8C396.8,150.4,397.9,151.5,399.2,155.2z M398.2,173.2c0.3,0,0.5-0.1,0.5-0.3c0-0.1,0-0.3-0.2-0.7
			l-3.8-11.5c-0.3-0.7-0.4-1.7-0.7-1.7c-0.4,0-0.5,0.9-0.7,1.7l-3.8,11.5c-0.2,0.4-0.2,0.6-0.2,0.7c0,0.2,0.2,0.3,0.5,0.3H398.2z"/>
		<path d="M440.3,182.2c0.4,0.6,0.6,1.3,0.6,1.8c0,1.7-2,3.2-3.7,3.2c-0.9,0-1.9-0.4-2.6-1.7l-6.9-12c-0.3-0.5-0.4-0.5-0.8-0.5h-5.3
			c-0.4,0-0.5,0.1-0.5,0.5v10.9c0,2.3-1.8,2.9-3.4,2.9c-1.6,0-3.4-0.6-3.4-2.9v-30.6c0-2,1.1-3.1,3-3.1H430c6,0,10.8,3.6,10.8,11.2
			c0,5.9-2.5,8.6-5.8,10.5c-0.2,0.1-0.3,0.2-0.3,0.4c0,0.1,0.1,0.2,0.1,0.2L440.3,182.2z M430,166.5c2.1,0,3.7-1.6,3.7-4.6
			c0-3.1-1.6-4.6-4-4.6h-8.3c-0.4,0-0.5,0.1-0.5,0.5v8.4c0,0.4,0.1,0.5,0.5,0.5H430z"/>
		<path d="M460.7,150.6c4.3,0,7.6,0.7,10.4,3.9c2.1,2.4,3.1,7.3,3.1,14.3c0,6.9-1,11.9-3.1,14.3c-2.8,3.2-6.1,3.9-10.4,3.9h-10.3
			c-1.8,0-3-1.1-3-3.1v-30.2c0-2,1.1-3.1,3-3.1H460.7z M460.7,180.5c1.4,0,4.1-0.1,5.4-2.7c1-1.9,1-5,1-9c0-4-0.1-6.9-1-8.9
			c-1.4-2.7-4-2.8-5.4-2.8h-6.1c-0.4,0-0.5,0.1-0.5,0.5V180c0,0.4,0.1,0.5,0.5,0.5H460.7z"/>
	</g>
	<g>
		<path class="st1" d="M214.1,97.9c-1.2,0-1.5,0.3-1.5,1.5v31.6c0,7.4-5.7,9.2-10.9,9.2c-5,0-10.9-1.8-10.9-9.2V32.9
			c0-6.4,3.7-9.9,9.5-9.9h41c19.1,0,34.5,12.1,34.5,37.5c0,25.3-15.4,37.3-34.5,37.3H214.1z M240.6,77c7.7,0,12.7-5.4,12.7-16.4
			s-5-16.6-12.7-16.6h-26.5c-1.2,0-1.5,0.3-1.5,1.5v30c0,1.2,0.3,1.5,1.5,1.5H240.6z"/>
		<path class="st1" d="M358.4,23.1c6.9,0,9.4,5.2,9.4,10.5c0,5.2-2.5,10.5-9.4,10.5h-42.5c-1.2,0-1.5,0.3-1.5,1.5v21.8
			c0,1.2,0.3,1.5,1.5,1.5h36.2c6.9,0,9.4,5.2,9.4,10.5c0,5.2-2.5,10.5-9.4,10.5h-36.2c-1.2,0-1.5,0.3-1.5,1.5V117
			c0,1.2,0.3,1.5,1.5,1.5h44.2c6.9,0,9.4,5.4,9.4,10.7c0,5.2-2.5,10.4-9.4,10.4h-57.9c-5.9,0-9.5-3.5-9.5-9.9V32.9
			c0-6.4,3.7-9.9,9.5-9.9H358.4z"/>
		<path class="st1" d="M450,93.1c0.5,0.8,1,1.7,1.8,1.7c0.8,0,0.8-1.3,0.8-1.7V31.6c0-7.4,5.7-9.2,10.9-9.2c5,0,10.9,1.8,10.9,9.2
			v95.6c0,9.9-4.7,13.1-11.2,13.1c-7.2,0-10-2.8-15.7-12.4l-34.7-58.3c-0.5-1-1-1.8-1.8-1.8s-0.8,1.3-0.8,1.8v61.5
			c0,7.4-5.7,9.2-10.9,9.2c-5,0-10.9-1.8-10.9-9.2V35.5c0-9.9,4.7-13.1,11.2-13.1c7.2,0,10,2.8,15.7,12.4L450,93.1z"/>
	</g>
	<path class="st1" d="M162.2,23.5H69.8c-7.2,0-13,5.8-13,13v137.4c0,7.2,5.8,13,13,13h92.4c7.2,0,13-5.8,13-13V36.5
		C175.2,29.4,169.4,23.5,162.2,23.5z M154.6,157.3c0,4.4-3.6,7.9-7.9,7.9H85.3c-4.4,0-7.9-3.6-7.9-7.9V53.1c0-4.4,3.6-7.9,7.9-7.9
		h61.3c4.4,0,7.9,3.6,7.9,7.9V157.3z"/>
	<path class="st2" d="M108.2,125.3c-18.4,5-24.9,11.9-24.9,11.9v17.5c0,3,2.8,5.4,6.3,5.4h52.5c3.5,0,6.3-2.4,6.3-5.4v-49.1
		C147.4,110.5,126.6,120.3,108.2,125.3z"/>
	<path class="st3" d="M83.3,99.8c0,0,6.6-6.8,24.9-11.9c18.4-5,39.1-14.8,40.2-19.8V55.8c0-3-2.8-5.4-6.3-5.4H89.6
		c-3.5,0-6.3,2.4-6.3,5.4V99.8z"/>
	<radialGradient id="SVGID_1_" cx="76.0861" cy="5.8801" r="513.1528" gradientUnits="userSpaceOnUse">
		<stop  offset="0" style="stop-color:#231F20;stop-opacity:0"/>
		<stop  offset="1" style="stop-color:#231F20"/>
	</radialGradient>
	<path class="st4" d="M162.2,23.5H69.8c-7.2,0-13,5.8-13,13v137.4c0,7.2,5.8,13,13,13h92.4c7.2,0,13-5.8,13-13V36.5
		C175.2,29.4,169.4,23.5,162.2,23.5z M154.6,157.3c0,4.4-3.6,7.9-7.9,7.9H85.3c-4.4,0-7.9-3.6-7.9-7.9V53.1c0-4.4,3.6-7.9,7.9-7.9
		h61.3c4.4,0,7.9,3.6,7.9,7.9V157.3z"/>
</g>
<linearGradient id="SVGID_00000116951590671210740680000012790612813080928410_" gradientUnits="userSpaceOnUse" x1="50.444" y1="105.5191" x2="56.7478" y2="105.5191">
	<stop  offset="0" style="stop-color:#231F20;stop-opacity:0"/>
	<stop  offset="1" style="stop-color:#231F20"/>
</linearGradient>
<rect x="50.4" y="45.7" style="opacity:0.5;fill:url(#SVGID_00000116951590671210740680000012790612813080928410_);" width="6.3" height="119.5"/>
<linearGradient id="SVGID_00000171681211276657955340000016901590394898791849_" gradientUnits="userSpaceOnUse" x1="42.0361" y1="71.7883" x2="48.3399" y2="71.7883">
	<stop  offset="0" style="stop-color:#231F20;stop-opacity:0"/>
	<stop  offset="1" style="stop-color:#231F20"/>
</linearGradient>
<rect x="42" y="55.6" style="opacity:0.5;fill:url(#SVGID_00000171681211276657955340000016901590394898791849_);" width="6.3" height="32.3"/>
<linearGradient id="SVGID_00000158710420185579487370000005961078589826727842_" gradientUnits="userSpaceOnUse" x1="42.0361" y1="138.6556" x2="48.3399" y2="138.6556">
	<stop  offset="0" style="stop-color:#231F20;stop-opacity:0"/>
	<stop  offset="1" style="stop-color:#231F20"/>
</linearGradient>
<rect x="42" y="122.5" style="opacity:0.5;fill:url(#SVGID_00000158710420185579487370000005961078589826727842_);" width="6.3" height="32.3"/>
<g class="st8">
	
		<radialGradient id="SVGID_00000160172713627089444520000017910006487953958039_" cx="76.0861" cy="5.8801" r="513.1528" gradientUnits="userSpaceOnUse">
		<stop  offset="0" style="stop-color:#231F20;stop-opacity:0"/>
		<stop  offset="1" style="stop-color:#231F20"/>
	</radialGradient>
	<path style="fill:url(#SVGID_00000160172713627089444520000017910006487953958039_);" d="M214.1,97.9c-1.2,0-1.5,0.3-1.5,1.5v31.6
		c0,7.4-5.7,9.2-10.9,9.2c-5,0-10.9-1.8-10.9-9.2V32.9c0-6.4,3.7-9.9,9.5-9.9h41c19.1,0,34.5,12.1,34.5,37.5
		c0,25.3-15.4,37.3-34.5,37.3H214.1z M240.6,77c7.7,0,12.7-5.4,12.7-16.4s-5-16.6-12.7-16.6h-26.5c-1.2,0-1.5,0.3-1.5,1.5v30
		c0,1.2,0.3,1.5,1.5,1.5H240.6z"/>
	
		<radialGradient id="SVGID_00000026155468928828549730000017840612098053790602_" cx="76.0861" cy="5.8801" r="513.1528" gradientUnits="userSpaceOnUse">
		<stop  offset="0" style="stop-color:#231F20;stop-opacity:0"/>
		<stop  offset="1" style="stop-color:#231F20"/>
	</radialGradient>
	<path style="fill:url(#SVGID_00000026155468928828549730000017840612098053790602_);" d="M358.4,23.1c6.9,0,9.4,5.2,9.4,10.5
		c0,5.2-2.5,10.5-9.4,10.5h-42.5c-1.2,0-1.5,0.3-1.5,1.5v21.8c0,1.2,0.3,1.5,1.5,1.5h36.2c6.9,0,9.4,5.2,9.4,10.5
		c0,5.2-2.5,10.5-9.4,10.5h-36.2c-1.2,0-1.5,0.3-1.5,1.5V117c0,1.2,0.3,1.5,1.5,1.5h44.2c6.9,0,9.4,5.4,9.4,10.7
		c0,5.2-2.5,10.4-9.4,10.4h-57.9c-5.9,0-9.5-3.5-9.5-9.9V32.9c0-6.4,3.7-9.9,9.5-9.9H358.4z"/>
	
		<radialGradient id="SVGID_00000008125689386602216690000013204283875048780953_" cx="76.0861" cy="5.8801" r="513.1528" gradientUnits="userSpaceOnUse">
		<stop  offset="0" style="stop-color:#231F20;stop-opacity:0"/>
		<stop  offset="1" style="stop-color:#231F20"/>
	</radialGradient>
	<path style="fill:url(#SVGID_00000008125689386602216690000013204283875048780953_);" d="M450,93.1c0.5,0.8,1,1.7,1.8,1.7
		c0.8,0,0.8-1.3,0.8-1.7V31.6c0-7.4,5.7-9.2,10.9-9.2c5,0,10.9,1.8,10.9,9.2v95.6c0,9.9-4.7,13.1-11.2,13.1c-7.2,0-10-2.8-15.7-12.4
		l-34.7-58.3c-0.5-1-1-1.8-1.8-1.8s-0.8,1.3-0.8,1.8v61.5c0,7.4-5.7,9.2-10.9,9.2c-5,0-10.9-1.8-10.9-9.2V35.5
		c0-9.9,4.7-13.1,11.2-13.1c7.2,0,10,2.8,15.7,12.4L450,93.1z"/>
</g>
</svg>
